<svg width="48" height="48" viewBox="0 0 48 48" fill="none" xmlns="http://www.w3.org/2000/svg">
<path class="icon--active" d="M21 6C19.5089 5.9928 18.0396 6.35777 16.7251 7.06184C15.4107 7.7659 14.2927 8.78682 13.4725 10.0321C12.6522 11.2773 12.1557 12.7076 12.0278 14.1932C11.8999 15.6788 12.1447 17.1729 12.74 18.54C11 20.24 10 22.56 10 25C10 30 14 34 19 34C20 34 21 33.78 22 33.44V42H26V31.54C27 31.82 28 32 29 32C30.4445 32 31.8749 31.7155 33.2095 31.1627C34.5441 30.6099 35.7567 29.7996 36.7782 28.7782C37.7996 27.7567 38.6099 26.5441 39.1627 25.2095C39.7155 23.8749 40 22.4445 40 21C40 19.5555 39.7155 18.1251 39.1627 16.7905C38.6099 15.4559 37.7996 14.2433 36.7782 13.2218C35.7567 12.2004 34.5441 11.3901 33.2095 10.8373C31.8749 10.2845 30.4445 10 29 10H28.48C26.82 7.52 24 6 21 6ZM21 10C23.64 10 25.82 12.06 26 14.7C26.92 14.24 28 14 29 14C30.8565 14 32.637 14.7375 33.9497 16.0503C35.2625 17.363 36 19.1435 36 21C36 22.8565 35.2625 24.637 33.9497 25.9497C32.637 27.2625 30.8565 28 29 28C27.08 28 25.26 27.22 23.92 25.82C23.7296 26.9874 23.1301 28.0489 22.2287 28.8147C21.3273 29.5806 20.1828 30.0007 19 30C17.6739 30 16.4021 29.4732 15.4645 28.5355C14.5268 27.5979 14 26.3261 14 25C14 22.24 15.6 21.08 18 19.58C16.4 17.52 16 16.32 16 15C16 13.6739 16.5268 12.4021 17.4645 11.4645C18.4021 10.5268 19.6739 10 21 10Z" fill="white"/>
</svg>
